<?xml version="1.0" encoding="UTF-8"?>
<svg xmlns="http://www.w3.org/2000/svg" viewBox="0 0 512 512" role="img" aria-label="FoxWiser mark">
  <path d="M369.94,292.33h0c-5.52-11.67-29.12-56.82-42.69-75.41-27.41-37.56-57.63-59.87-82.28-76.67-49.67-33.85-112.51-69.71-162.29-96.79l-28.62,47.93-10.37-68.79C20.73,10.5,4.51,2.28,0,0c6.7,66.72,13.67,123.99,19.64,169.23,14.58,110.68,23.81,154.71,44.88,205.13,24.02,57.5,46.29,82.24,57.03,93.14,9.98,10.13,27.57,23.87,42.39,34.45,12.41-108.65,98.37-194.94,206.87-207.85-.29-.59-.58-1.17-.87-1.77h0Z" fill="#F8FAFC" fill-rule="evenodd" transform="translate(108.246563 56.000000) scale(0.79689212)"/>
</svg>
