<?xml version='1.0' encoding='utf-8'?>
<svg xmlns="http://www.w3.org/2000/svg" viewBox="0 0 164.2 58.35">
  <defs>
    <style>
      .cls-1 {
        fill: #102a43;
      }

      .cls-2 {
        fill: #d95a30;
      }
    </style>
  </defs>
  <g id="Layer_1" data-name="Layer 1">
    <g>
      <g>
        <path class="cls-1" d="M24.64,56.53h-.83l2.4-6.55h.82l2.4,6.55h-.83l-1.96-5.51h-.05l-1.96,5.51ZM24.95,53.97h3.35v.7h-3.35v-.7Z" />
        <path class="cls-1" d="M33.05,49.98v6.55h-.79v-6.55h.79Z" />
        <path class="cls-1" d="M45.1,56.53v-6.55h.79v5.84h3.04v.7h-3.84Z" />
        <path class="cls-1" d="M52.23,56.53h-.83l2.4-6.55h.82l2.4,6.55h-.83l-1.96-5.51h-.05l-1.96,5.51ZM52.54,53.97h3.35v.7h-3.35v-.7Z" />
        <path class="cls-1" d="M61.03,56.53l-1.79-6.55h.81l1.37,5.33h.06l1.39-5.33h.9l1.39,5.33h.06l1.37-5.33h.81l-1.79,6.55h-.82l-1.44-5.22h-.05l-1.44,5.22h-.82Z" />
      </g>
      <circle cx="39.47" cy="53.7" r="1.04" />
    </g>
    <g>
      <path class="cls-2" d="M31.35,47.78c-1.88,0-3.52-.43-4.92-1.29-1.4-.86-2.49-2.07-3.26-3.62-.77-1.55-1.16-3.36-1.16-5.43s.39-3.9,1.16-5.46c.77-1.56,1.86-2.77,3.26-3.63,1.4-.86,3.04-1.29,4.92-1.29s3.52.43,4.92,1.29c1.4.86,2.49,2.07,3.26,3.63s1.16,3.38,1.16,5.46-.39,3.88-1.16,5.43c-.77,1.55-1.86,2.76-3.26,3.62-1.4.86-3.04,1.29-4.92,1.29ZM31.36,44.51c1.22,0,2.23-.32,3.03-.97.8-.64,1.4-1.5,1.78-2.57.39-1.07.58-2.25.58-3.54s-.19-2.46-.58-3.53-.98-1.94-1.78-2.59c-.8-.65-1.81-.98-3.03-.98s-2.24.33-3.05.98c-.81.65-1.4,1.52-1.79,2.59-.39,1.08-.58,2.25-.58,3.53s.19,2.47.58,3.54c.39,1.07.98,1.93,1.79,2.57.81.64,1.82.97,3.05.97Z" />
      <path class="cls-2" d="M48.13,27.32l4.43,7.81,4.47-7.81h4.27l-6.26,10.03,6.31,10.03h-4.27l-4.52-7.5-4.51,7.5h-4.28l6.24-10.03-6.16-10.03h4.28Z" />
    </g>
    <g>
      <path class="cls-1" d="M76.28,47.38l-5.9-20.06h4.04l3.93,14.73h.2l3.94-14.73h4.04l3.92,14.67h.2l3.9-14.67h4.04l-5.89,20.06h-3.98l-4.07-14.48h-.3l-4.07,14.48h-3.97Z" />
      <path class="cls-1" d="M104.42,24.23c-.68,0-1.26-.23-1.74-.69-.48-.46-.73-1-.73-1.64s.24-1.19.73-1.65c.48-.46,1.06-.69,1.74-.69s1.26.23,1.74.69c.48.46.72,1,.72,1.64s-.24,1.19-.72,1.65c-.48.46-1.06.69-1.74.69ZM102.45,47.38v-20.06h3.9v20.06h-3.9Z" />
      <path class="cls-1" d="M126.82,32.22l-3.54.63c-.15-.45-.38-.88-.7-1.29-.32-.41-.75-.74-1.29-1-.54-.26-1.21-.39-2.02-.39-1.11,0-2.03.25-2.77.74-.74.49-1.11,1.13-1.11,1.9,0,.67.25,1.21.74,1.62s1.3.74,2.4,1.01l3.19.73c1.85.43,3.22,1.08,4.13,1.97s1.36,2.04,1.36,3.46c0,1.2-.35,2.27-1.04,3.21-.69.94-1.65,1.67-2.89,2.2s-2.66.8-4.28.8c-2.25,0-4.08-.48-5.5-1.44s-2.29-2.33-2.61-4.11l3.77-.57c.24.98.72,1.73,1.45,2.23s1.68.75,2.86.75c1.28,0,2.3-.27,3.07-.8.77-.54,1.15-1.19,1.15-1.96,0-.63-.23-1.15-.7-1.58s-1.18-.75-2.14-.97l-3.4-.74c-1.87-.43-3.25-1.11-4.15-2.04-.89-.93-1.34-2.11-1.34-3.54,0-1.18.33-2.22.99-3.11.66-.89,1.58-1.58,2.74-2.08,1.17-.5,2.5-.75,4.01-.75,2.17,0,3.87.47,5.12,1.4,1.25.94,2.07,2.19,2.47,3.75Z" />
      <path class="cls-1" d="M140.33,47.78c-1.98,0-3.68-.42-5.1-1.27s-2.52-2.05-3.29-3.59c-.77-1.54-1.16-3.36-1.16-5.44s.39-3.87,1.16-5.43c.77-1.57,1.85-2.79,3.24-3.67,1.39-.88,3.01-1.32,4.88-1.32,1.13,0,2.23.19,3.29.56,1.06.38,2.02.96,2.86,1.76s1.51,1.84,2,3.11.73,2.82.73,4.64v1.38h-15.95v-2.92h12.12c0-1.03-.21-1.94-.63-2.74-.42-.8-1-1.42-1.76-1.89-.75-.46-1.63-.69-2.64-.69-1.1,0-2.05.27-2.87.8s-1.44,1.23-1.88,2.09c-.44.86-.66,1.79-.66,2.79v2.29c0,1.34.24,2.48.71,3.42s1.14,1.66,1.99,2.15c.85.49,1.85.74,2.99.74.74,0,1.41-.11,2.02-.32.61-.21,1.14-.53,1.58-.96s.78-.95,1.02-1.58l3.7.67c-.3,1.09-.83,2.04-1.59,2.85s-1.72,1.45-2.86,1.89c-1.15.45-2.45.67-3.91.67Z" />
      <path class="cls-1" d="M153.46,47.38v-20.06h3.77v3.19h.21c.37-1.08,1.01-1.93,1.94-2.55.93-.62,1.98-.93,3.15-.93.24,0,.53,0,.87.03s.6.04.79.07v3.73c-.16-.04-.44-.09-.84-.15-.4-.06-.8-.08-1.2-.08-.92,0-1.74.19-2.46.58-.72.39-1.29.92-1.7,1.61s-.63,1.46-.63,2.33v12.25h-3.9Z" />
    </g>
  </g>
  <g id="terazi">
    <g>
      <path class="cls-2" d="M9.77,10.8H3.71l-.08,1.28c0,7.97,0,22.97,0,31.3h0c.02,4.38.04,9.1.06,14.11.08.11,1.22.88,3.2.82,1.64-.04,2.54-.53,2.77-.84.03-.04.04-.09.04-.14v-13.96h0c.05-13.23.07-29.31,0-31.07,0-.14-.04-.71.06-1.51Z" />
      <rect class="cls-2" x=".01" y="26.19" width="18.36" height="2.03" rx=".54" ry=".54" transform="translate(-1.23 .45) rotate(-2.61)" />
      <path class="cls-2" d="M18.12,0C10.3,0,3.72,3.03,3.72,10.86h28.33c0-7.82-5.98-10.86-13.92-10.86ZM13.72,8.91l1.15-6.18,2.63,5.75-3.79.43ZM18.25,8.49l2.5-5.77,1.29,6.19-3.79-.42Z" />
    </g>
  </g>
</svg>