<?xml version="1.0" encoding="UTF-8"?>
<svg id="Layer_1" data-name="Layer 1" xmlns="http://www.w3.org/2000/svg" viewBox="0 0 231.26 100">
  <defs>
    <style>
      .cls-1, .cls-2 {
        fill: #102a43;
      }

      .cls-2 {
        fill-rule: evenodd;
      }
    </style>
  </defs>
  <path class="cls-2" d="M73.54,58.11h0c-1.1-2.32-5.79-11.29-8.49-14.99-5.45-7.47-11.46-11.9-16.36-15.24-9.87-6.73-22.37-13.86-32.26-19.24l-5.69,9.53-2.06-13.67C4.12,2.09.9.45,0,0c1.33,13.26,2.72,24.65,3.9,33.64,2.9,22,4.73,30.75,8.92,40.78,4.77,11.43,9.2,16.35,11.34,18.51,1.98,2.01,5.48,4.74,8.43,6.85,2.47-21.6,19.55-38.75,41.12-41.32-.06-.12-.12-.23-.17-.35h0ZM27.8,45.62h-9.49v5.02h8.57v3.67h-8.57v8.7h-4.45v-21.06h13.94v3.67h0ZM52.39,63.01h-4.34l-4.01-13.77h-.16l-4,13.77h-4.34l-6.03-21.06h4.86l3.49,14.63h.17l3.85-14.63h4.16l3.83,14.66h.18l3.49-14.66h4.86l-6.03,21.06h0Z"/>
  <g>
    <path class="cls-1" d="M75.5,80.04v-20.53h13.59v3.58h-9.25v4.89h8.35v3.58h-8.35v8.48h-4.34,0,0Z"/>
    <path class="cls-1" d="M110.87,69.78c0,2.24-.42,4.14-1.27,5.72s-2,2.77-3.45,3.59-3.09,1.24-4.9,1.24-3.46-.41-4.91-1.24c-1.45-.83-2.6-2.03-3.44-3.6s-1.26-3.47-1.26-5.7.42-4.14,1.26-5.72c.84-1.57,1.99-2.77,3.44-3.59,1.45-.82,3.09-1.24,4.91-1.24s3.44.41,4.9,1.24,2.6,2.02,3.45,3.59c.84,1.57,1.27,3.47,1.27,5.72h0ZM106.47,69.78c0-1.45-.21-2.67-.65-3.67s-1.04-1.75-1.82-2.27-1.7-.77-2.75-.77-1.96.26-2.75.77c-.78.51-1.39,1.27-1.82,2.27s-.65,2.22-.65,3.67.21,2.67.65,3.67,1.04,1.75,1.82,2.27,1.7.77,2.75.77,1.96-.26,2.75-.77c.78-.51,1.39-1.27,1.82-2.27.43-1,.65-2.22.65-3.67Z"/>
    <path class="cls-1" d="M118.15,59.51l4.14,7h.16l4.16-7h4.9l-6.27,10.27,6.4,10.27h-4.99l-4.21-7.01h-.16l-4.21,7.01h-4.97l6.43-10.27-6.31-10.27h4.92,0Z"/>
    <path class="cls-1" d="M145.42,80.04l-5.87-20.53h4.74l3.4,14.26h.17l3.75-14.26h4.06l3.74,14.29h.18l3.4-14.29h4.74l-5.87,20.53h-4.23l-3.91-13.42h-.16l-3.9,13.42h-4.23,0Z"/>
    <path class="cls-1" d="M174.38,59.51v20.53h-4.34v-20.53h4.34Z"/>
    <path class="cls-1" d="M189.09,65.42c-.08-.81-.42-1.44-1.03-1.88s-1.43-.67-2.48-.67c-.71,0-1.31.1-1.8.3-.49.2-.86.47-1.12.82s-.39.74-.39,1.18c-.01.37.07.69.24.96s.41.51.71.71.65.37,1.04.51c.39.14.82.27,1.26.37l1.84.44c.89.2,1.72.47,2.47.8.75.33,1.4.75,1.94,1.23.55.49.97,1.06,1.28,1.72.3.66.46,1.42.47,2.28,0,1.26-.33,2.34-.96,3.26-.63.92-1.54,1.63-2.73,2.13s-2.61.76-4.29.76-3.1-.25-4.33-.76-2.18-1.26-2.87-2.26c-.69-1-1.04-2.24-1.08-3.71h4.2c.05.69.25,1.26.6,1.72.35.46.82.8,1.41,1.03.59.23,1.26.35,2.01.35s1.38-.11,1.92-.32c.54-.21.97-.51,1.27-.89.3-.38.45-.82.45-1.31,0-.46-.14-.85-.41-1.16-.27-.31-.67-.58-1.18-.8s-1.15-.42-1.9-.6l-2.24-.56c-1.73-.42-3.1-1.08-4.1-1.97-1-.89-1.5-2.1-1.49-3.62,0-1.24.33-2.33,1-3.26s1.6-1.65,2.77-2.17c1.18-.52,2.51-.78,4.01-.78s2.85.26,4,.78c1.14.52,2.03,1.25,2.66,2.17.63.93.96,2.01.98,3.23h-4.16,0Z"/>
    <path class="cls-1" d="M196.44,80.04v-20.53h13.83v3.58h-9.49v4.89h8.78v3.58h-8.78v4.9h9.53v3.58h-13.87Z"/>
    <path class="cls-1" d="M213.73,80.04v-20.53h8.1c1.55,0,2.87.28,3.98.83,1.1.55,1.94,1.33,2.52,2.34s.87,2.19.87,3.54-.29,2.53-.88,3.51c-.59.98-1.44,1.73-2.55,2.25-1.11.52-2.46.78-4.04.78h-5.42v-3.49h4.72c.83,0,1.52-.11,2.07-.34s.96-.57,1.23-1.02c.27-.46.41-1.02.41-1.69s-.14-1.26-.41-1.72-.68-.82-1.23-1.07-1.24-.37-2.08-.37h-2.93v16.98h-4.34s0,0,0,0ZM224.82,70.7l5.1,9.34h-4.79l-4.99-9.34h4.68,0Z"/>
  </g>
  <g>
    <path class="cls-1" d="M193.85,99.78v-14.46h2.62v12.26h6.37v2.19h-8.99,0Z"/>
    <path class="cls-1" d="M208.11,100c-.69,0-1.3-.12-1.85-.37s-.98-.61-1.3-1.1c-.32-.49-.48-1.08-.48-1.79,0-.61.11-1.12.34-1.52s.53-.72.92-.96.83-.42,1.32-.55c.49-.13,1-.21,1.53-.27.64-.07,1.15-.13,1.55-.18.4-.05.68-.14.86-.25s.27-.3.27-.54v-.04c0-.53-.16-.94-.47-1.23-.32-.29-.77-.44-1.36-.44-.63,0-1.12.14-1.49.41s-.61.6-.74.97l-2.39-.34c.19-.66.5-1.21.93-1.66s.96-.78,1.59-1,1.32-.34,2.08-.34c.52,0,1.04.06,1.56.18s.99.32,1.42.6c.43.28.77.66,1.03,1.14.26.48.39,1.08.39,1.8v7.26h-2.46v-1.49h-.09c-.16.3-.37.58-.65.84s-.63.47-1.05.63-.91.24-1.48.24h0ZM208.77,98.12c.51,0,.96-.1,1.33-.31.38-.2.67-.48.87-.82.2-.34.31-.71.31-1.11v-1.28c-.08.07-.21.13-.41.18s-.4.11-.64.15c-.23.04-.47.08-.7.11s-.43.06-.6.09c-.38.05-.72.14-1.02.25s-.54.28-.71.49-.26.48-.26.81c0,.47.17.83.51,1.07.34.24.78.36,1.31.36h0Z"/>
    <path class="cls-1" d="M218.64,99.78l-3.06-10.84h2.6l1.91,7.62h.1l1.95-7.62h2.58l1.95,7.58h.11l1.88-7.58h2.61l-3.07,10.84h-2.66l-2.03-7.33h-.15l-2.03,7.33h-2.67,0Z"/>
  </g>
</svg>