<?xml version="1.0" encoding="UTF-8"?>
<svg id="svg1" xmlns="http://www.w3.org/2000/svg" version="1.1" viewBox="0 0 1163.37 501.95">
  <!-- Generator: Adobe Illustrator 30.2.1, SVG Export Plug-In . SVG Version: 2.1.1 Build 1)  -->
  <defs>
    <style>
      .st0, .st1 {
        fill: #F8FAFC;
      }

      .st1 {
        fill-rule: evenodd;
      }
    </style>
  </defs>
  <path class="st1" d="M369.94,292.33h0c-5.52-11.67-29.12-56.82-42.69-75.41-27.41-37.56-57.63-59.87-82.28-76.67-49.67-33.85-112.51-69.71-162.29-96.79l-28.62,47.93-10.37-68.79C20.73,10.5,4.51,2.28,0,0c6.7,66.72,13.67,123.99,19.64,169.23,14.58,110.68,23.81,154.71,44.88,205.13,24.02,57.5,46.29,82.24,57.03,93.14,9.98,10.13,27.57,23.87,42.39,34.45,12.41-108.65,98.37-194.94,206.87-207.85-.29-.59-.58-1.17-.87-1.77h0ZM139.87,229.5h-47.75v25.24h43.09v18.47h-43.09v43.76h-22.4v-105.94h70.15v18.47h0ZM263.56,316.97h-21.83l-20.17-69.27h-.83l-20.12,69.27h-21.83l-30.31-105.94h24.47l17.54,73.61h.88l19.35-73.61h20.95l19.29,73.77h.93l17.54-73.77h24.47l-30.31,105.94h-.02Z"/>
  <g>
    <path class="st0" d="M379.79,402.66v-103.28h68.38v18h-46.55v24.61h42.01v18h-42.01v42.66h-21.84.01Z"/>
    <path class="st0" d="M557.75,351.02c0,11.26-2.13,20.84-6.38,28.75s-10.04,13.93-17.35,18.08c-7.31,4.15-15.52,6.23-24.63,6.23s-17.42-2.08-24.71-6.25c-7.3-4.17-13.06-10.2-17.3-18.1s-6.35-17.46-6.35-28.69,2.12-20.84,6.35-28.75c4.24-7.9,10-13.93,17.3-18.08,7.29-4.15,15.53-6.23,24.71-6.23s17.32,2.08,24.63,6.23,13.09,10.18,17.35,18.08c4.25,7.9,6.38,17.48,6.38,28.75v-.02ZM535.61,351.02c0-7.29-1.08-13.45-3.25-18.46s-5.22-8.81-9.15-11.4-8.54-3.88-13.82-3.88-9.88,1.29-13.82,3.88c-3.93,2.59-6.98,6.39-9.15,11.4s-3.25,11.16-3.25,18.46,1.08,13.45,3.25,18.46,5.22,8.81,9.15,11.4,8.54,3.88,13.82,3.88,9.88-1.29,13.82-3.88c3.93-2.59,6.99-6.39,9.15-11.4,2.17-5.01,3.25-11.16,3.25-18.46Z"/>
    <path class="st0" d="M594.36,299.38l20.83,35.2h.81l20.93-35.2h24.66l-31.52,51.64,32.22,51.64h-25.11l-21.18-35.25h-.81l-21.18,35.25h-25.01l32.33-51.64-31.72-51.64h24.76,0Z"/>
    <path class="st0" d="M731.53,402.66l-29.55-103.28h23.85l17.1,71.76h.86l18.86-71.76h20.42l18.81,71.91h.91l17.1-71.91h23.85l-29.55,103.28h-21.28l-19.67-67.52h-.81l-19.62,67.52h-21.28,0Z"/>
    <path class="st0" d="M877.22,299.38v103.28h-21.84v-103.28h21.84Z"/>
    <path class="st0" d="M951.24,329.08c-.4-4.07-2.13-7.23-5.19-9.48s-7.21-3.38-12.46-3.38c-3.56,0-6.57.5-9.03,1.49-2.45.99-4.33,2.36-5.62,4.11s-1.94,3.73-1.94,5.95c-.07,1.85.33,3.46,1.19,4.84s2.04,2.56,3.55,3.55,3.26,1.85,5.25,2.57c1.98.72,4.1,1.34,6.35,1.84l9.28,2.22c4.5,1.01,8.64,2.35,12.41,4.03,3.77,1.68,7.03,3.75,9.78,6.2,2.76,2.45,4.9,5.34,6.43,8.67,1.53,3.33,2.31,7.14,2.34,11.45-.03,6.32-1.64,11.79-4.82,16.42-3.18,4.62-7.75,8.2-13.72,10.74s-13.15,3.81-21.56,3.81-15.59-1.28-21.76-3.83-10.98-6.35-14.42-11.37c-3.45-5.03-5.25-11.25-5.42-18.68h21.13c.23,3.46,1.24,6.35,3,8.65,1.77,2.3,4.14,4.03,7.11,5.19,2.98,1.16,6.35,1.74,10.11,1.74s6.92-.54,9.66-1.61c2.74-1.08,4.87-2.57,6.38-4.49,1.51-1.92,2.27-4.12,2.27-6.61,0-2.32-.68-4.27-2.04-5.85-1.36-1.58-3.35-2.92-5.95-4.03s-5.79-2.12-9.56-3.03l-11.25-2.82c-8.71-2.12-15.58-5.43-20.63-9.93-5.04-4.5-7.55-10.57-7.51-18.21-.03-6.25,1.64-11.72,5.02-16.39,3.38-4.67,8.03-8.32,13.94-10.94,5.92-2.62,12.64-3.93,20.17-3.93s14.36,1.31,20.1,3.93c5.73,2.62,10.19,6.27,13.39,10.94,3.19,4.67,4.84,10.09,4.94,16.24h-20.93.01Z"/>
    <path class="st0" d="M988.21,402.66v-103.28h69.59v18h-47.76v24.61h44.18v18h-44.18v24.66h47.96v18h-69.79Z"/>
    <path class="st0" d="M1075.2,402.66v-103.28h40.75c7.8,0,14.46,1.39,20,4.16,5.53,2.77,9.75,6.69,12.66,11.75s4.36,11,4.36,17.83-1.48,12.75-4.44,17.68c-2.96,4.92-7.24,8.7-12.83,11.32-5.6,2.62-12.36,3.93-20.3,3.93h-27.28v-17.55h23.75c4.17,0,7.63-.57,10.39-1.71s4.82-2.86,6.18-5.14c1.36-2.29,2.04-5.13,2.04-8.52s-.68-6.32-2.04-8.67-3.43-4.14-6.2-5.37-6.26-1.84-10.46-1.84h-14.73v85.43h-21.84v-.02ZM1130.97,355.66l25.67,47h-24.11l-25.11-47h23.55Z"/>
  </g>
  <g>
    <path class="st0" d="M975.16,501.95v-72.73h13.17v61.68h32.03v11.04h-45.21.01Z"/>
    <path class="st0" d="M1046.9,503.05c-3.46,0-6.56-.62-9.32-1.86s-4.94-3.08-6.53-5.52c-1.6-2.44-2.4-5.45-2.4-9.02,0-3.08.57-5.62,1.71-7.63s2.69-3.62,4.65-4.83,4.18-2.12,6.66-2.75c2.47-.63,5.04-1.08,7.69-1.37,3.2-.33,5.79-.63,7.78-.91,1.99-.27,3.44-.7,4.35-1.28s1.37-1.49,1.37-2.72v-.21c0-2.67-.79-4.75-2.38-6.21-1.59-1.47-3.87-2.2-6.85-2.2-3.15,0-5.64.69-7.48,2.06s-3.07,3-3.71,4.87l-12-1.71c.95-3.31,2.51-6.09,4.69-8.33s4.84-3.92,7.99-5.04,6.63-1.69,10.44-1.69c2.63,0,5.24.31,7.85.92s4.98,1.63,7.14,3.04c2.15,1.41,3.89,3.32,5.2,5.73,1.31,2.42,1.97,5.43,1.97,9.06v36.51h-12.36v-7.49h-.43c-.78,1.52-1.88,2.93-3.29,4.24-1.41,1.31-3.17,2.37-5.29,3.16s-4.6,1.19-7.44,1.19h0ZM1050.23,493.6c2.58,0,4.82-.52,6.71-1.54,1.89-1.03,3.36-2.4,4.39-4.1,1.03-1.71,1.54-3.56,1.54-5.58v-6.43c-.4.33-1.08.64-2.04.92s-2.03.53-3.21.75c-1.18.21-2.36.4-3.52.57-1.16.17-2.17.31-3.02.43-1.92.26-3.63.69-5.15,1.28s-2.71,1.42-3.59,2.47c-.88,1.05-1.31,2.41-1.31,4.07,0,2.37.86,4.16,2.59,5.36,1.73,1.21,3.93,1.81,6.6,1.81h.01Z"/>
    <path class="st0" d="M1099.91,501.95l-15.41-54.55h13.1l9.59,38.35h.5l9.8-38.35h12.96l9.8,38.14h.53l9.45-38.14h13.14l-15.45,54.55h-13.39l-10.23-36.86h-.75l-10.23,36.86h-13.42,0Z"/>
  </g>
</svg>