<?xml version="1.0" encoding="UTF-8"?>
<svg id="Logo" xmlns="http://www.w3.org/2000/svg" xmlns:xlink="http://www.w3.org/1999/xlink" viewBox="0 0 253.2 109.2">
  <defs>
    <style>
      .cls-1 {
        filter: url(#drop-shadow-10);
      }

      .cls-1, .cls-6 {
        fill: #102a43;
      }

      .cls-2, .cls-3, .cls-4, .cls-5, .cls-7, .cls-8 {
        fill: #8a94a6;
      }

      .cls-9 {
        filter: url(#drop-shadow-9);
      }

      .cls-9, .cls-10 {
        fill: #8a94a6;
      }

      .cls-10 {
        filter: url(#drop-shadow-8);
      }

      .cls-2 {
        filter: url(#drop-shadow-1);
      }

      .cls-3 {
        filter: url(#drop-shadow-3);
      }

      .cls-4 {
        filter: url(#drop-shadow-2);
      }

      .cls-5 {
        filter: url(#drop-shadow-6);
      }

      .cls-6 {
        filter: url(#drop-shadow-7);
      }

      .cls-7 {
        filter: url(#drop-shadow-5);
      }

      .cls-8 {
        filter: url(#drop-shadow-4);
      }
    </style>
    <filter id="drop-shadow-1" x="68.4" y="57.84" width="40.8" height="50.88" filterUnits="userSpaceOnUse">
      <feOffset dx="7" dy="4"/>
      <feGaussianBlur result="blur" stdDeviation="4"/>
      <feFlood flood-color="#000" flood-opacity=".64"/>
      <feComposite in2="blur" operator="in"/>
      <feComposite in="SourceGraphic"/>
    </filter>
    <filter id="drop-shadow-2" x="88.8" y="57.36" width="48.24" height="51.84" filterUnits="userSpaceOnUse">
      <feOffset dx="7" dy="4"/>
      <feGaussianBlur result="blur-2" stdDeviation="4"/>
      <feFlood flood-color="#000" flood-opacity=".64"/>
      <feComposite in2="blur-2" operator="in"/>
      <feComposite in="SourceGraphic"/>
    </filter>
    <filter id="drop-shadow-3" x="115.44" y="57.84" width="46.8" height="50.88" filterUnits="userSpaceOnUse">
      <feOffset dx="7" dy="4"/>
      <feGaussianBlur result="blur-3" stdDeviation="4"/>
      <feFlood flood-color="#000" flood-opacity=".64"/>
      <feComposite in2="blur-3" operator="in"/>
      <feComposite in="SourceGraphic"/>
    </filter>
    <filter id="drop-shadow-4" x="150.96" y="57.84" width="40.32" height="50.88" filterUnits="userSpaceOnUse">
      <feOffset dx="7" dy="4"/>
      <feGaussianBlur result="blur-4" stdDeviation="4"/>
      <feFlood flood-color="#000" flood-opacity=".64"/>
      <feComposite in2="blur-4" operator="in"/>
      <feComposite in="SourceGraphic"/>
    </filter>
    <filter id="drop-shadow-5" x="169.2" y="57.84" width="48.24" height="50.88" filterUnits="userSpaceOnUse">
      <feOffset dx="7" dy="4"/>
      <feGaussianBlur result="blur-5" stdDeviation="4"/>
      <feFlood flood-color="#000" flood-opacity=".64"/>
      <feComposite in2="blur-5" operator="in"/>
      <feComposite in="SourceGraphic"/>
    </filter>
    <filter id="drop-shadow-6" x="194.4" y="57.84" width="58.8" height="50.88" filterUnits="userSpaceOnUse">
      <feOffset dx="7" dy="4"/>
      <feGaussianBlur result="blur-6" stdDeviation="4"/>
      <feFlood flood-color="#000" flood-opacity=".64"/>
      <feComposite in2="blur-6" operator="in"/>
      <feComposite in="SourceGraphic"/>
    </filter>
    <filter id="drop-shadow-7" x="50.4" y="19.92" width="36.48" height="36.48" filterUnits="userSpaceOnUse">
      <feOffset dx="7" dy="4"/>
      <feGaussianBlur result="blur-7" stdDeviation="4"/>
      <feFlood flood-color="#000" flood-opacity=".64"/>
      <feComposite in2="blur-7" operator="in"/>
      <feComposite in="SourceGraphic"/>
    </filter>
    <filter id="drop-shadow-8" x="6.48" y="19.92" width="36.48" height="36.48" filterUnits="userSpaceOnUse">
      <feOffset dx="7" dy="4"/>
      <feGaussianBlur result="blur-8" stdDeviation="4"/>
      <feFlood flood-color="#000" flood-opacity=".64"/>
      <feComposite in2="blur-8" operator="in"/>
      <feComposite in="SourceGraphic"/>
    </filter>
    <filter id="drop-shadow-9" x="20.64" y="0" width="69.6" height="76.32" filterUnits="userSpaceOnUse">
      <feOffset dx="7" dy="4"/>
      <feGaussianBlur result="blur-9" stdDeviation="4"/>
      <feFlood flood-color="#000" flood-opacity=".64"/>
      <feComposite in2="blur-9" operator="in"/>
      <feComposite in="SourceGraphic"/>
    </filter>
    <filter id="drop-shadow-10" x="0" y="0" width="69.84" height="76.32" filterUnits="userSpaceOnUse">
      <feOffset dx="7" dy="4"/>
      <feGaussianBlur result="blur-10" stdDeviation="4"/>
      <feFlood flood-color="#000" flood-opacity=".64"/>
      <feComposite in2="blur-10" operator="in"/>
      <feComposite in="SourceGraphic"/>
    </filter>
  </defs>
  <path class="cls-2" d="M73.51,92.61v-26.73h16.57v3.47h-12.54v8.14h11.35v3.46h-11.35v11.65h-4.03Z"/>
  <path class="cls-4" d="M117.9,79.24c0,2.85-.52,5.3-1.57,7.35-1.04,2.05-2.47,3.62-4.29,4.72s-3.87,1.65-6.18,1.65-4.38-.55-6.19-1.65-3.24-2.68-4.29-4.73c-1.04-2.05-1.57-4.5-1.57-7.35s.52-5.3,1.57-7.35c1.04-2.05,2.47-3.62,4.29-4.72s3.88-1.65,6.19-1.65,4.37.55,6.18,1.65,3.24,2.67,4.29,4.72c1.04,2.05,1.57,4.5,1.57,7.35ZM113.9,79.24c0-2.17-.35-4.01-1.05-5.5s-1.66-2.62-2.87-3.39c-1.21-.77-2.59-1.16-4.12-1.16s-2.91.38-4.12,1.16c-1.21.77-2.16,1.9-2.86,3.39-.7,1.49-1.05,3.33-1.05,5.5s.35,4.01,1.05,5.5c.7,1.49,1.65,2.62,2.86,3.39,1.21.77,2.58,1.16,4.12,1.16s2.9-.38,4.12-1.16c1.21-.77,2.17-1.9,2.87-3.39s1.05-3.33,1.05-5.5Z"/>
  <path class="cls-3" d="M125.34,65.88l6.39,10.45h.21l6.39-10.45h4.67l-8.33,13.36,8.38,13.36h-4.7l-6.42-10.31h-.21l-6.42,10.31h-4.7l8.52-13.36-8.47-13.36h4.67Z"/>
  <path class="cls-8" d="M156.02,92.61v-26.73h4.03v23.25h12.11v3.47h-16.14Z"/>
  <path class="cls-7" d="M178.64,92.61h-4.28l9.62-26.73h4.66l9.62,26.73h-4.28l-7.56-21.87h-.21l-7.57,21.87ZM179.36,82.14h13.89v3.39h-13.89v-3.39Z"/>
  <path class="cls-5" d="M206.97,92.61l-7.41-26.73h4.24l5.21,20.7h.25l5.42-20.7h4.2l5.42,20.71h.25l5.19-20.71h4.25l-7.42,26.73h-4.06l-5.62-20.02h-.21l-5.62,20.02h-4.07Z"/>
  <circle class="cls-6" cx="61.68" cy="34.2" r="6.13"/>
  <circle class="cls-10" cx="17.67" cy="34.2" r="6.13"/>
  <path class="cls-9" d="M69.2,8.31l-42.83,24.73c-.9.52-.9,1.81,0,2.33l42.83,24.73c.9.52,2.02-.13,2.02-1.17V9.47c0-1.04-1.12-1.68-2.02-1.17ZM61.68,42.02c-4.31,0-7.81-3.5-7.81-7.81s3.5-7.81,7.81-7.81,7.81,3.5,7.81,7.81-3.5,7.81-7.81,7.81Z"/>
  <path class="cls-1" d="M50.03,33.04L7.2,8.31c-.9-.52-2.02.13-2.02,1.17v49.46c0,1.04,1.12,1.68,2.02,1.17l42.83-24.73c.9-.52.9-1.81,0-2.33ZM17.67,42.02c-4.31,0-7.81-3.5-7.81-7.81s3.5-7.81,7.81-7.81,7.81,3.5,7.81,7.81-3.5,7.81-7.81,7.81Z"/>
</svg>