<?xml version="1.0" encoding="UTF-8"?>
<svg id="Layer_1" data-name="Layer 1" xmlns="http://www.w3.org/2000/svg" viewBox="0 0 228.81 84.85">
  <defs>
    <style>
      .cls-1 {
        fill: #102a43;
      }

      .cls-2 {
        fill: #8a94a6;
      }
    </style>
  </defs>
  <path class="cls-2" d="M68.34,84.48v-26.73h16.57v3.47h-12.54v8.14h11.35v3.46h-11.35v11.65h-4.03Z"/>
  <path class="cls-2" d="M112.72,71.12c0,2.85-.52,5.3-1.57,7.35-1.04,2.05-2.47,3.62-4.29,4.72s-3.87,1.65-6.18,1.65-4.38-.55-6.19-1.65-3.24-2.68-4.29-4.73c-1.04-2.05-1.57-4.5-1.57-7.35s.52-5.3,1.57-7.35c1.04-2.05,2.47-3.62,4.29-4.72s3.88-1.65,6.19-1.65,4.37.55,6.18,1.65,3.24,2.67,4.29,4.72c1.04,2.05,1.57,4.5,1.57,7.35ZM108.72,71.12c0-2.17-.35-4.01-1.05-5.5s-1.66-2.62-2.87-3.39c-1.21-.77-2.59-1.16-4.12-1.16s-2.91.38-4.12,1.16c-1.21.77-2.16,1.9-2.86,3.39-.7,1.49-1.05,3.33-1.05,5.5s.35,4.01,1.05,5.5c.7,1.49,1.65,2.62,2.86,3.39,1.21.77,2.58,1.16,4.12,1.16s2.9-.38,4.12-1.16c1.21-.77,2.17-1.9,2.87-3.39s1.05-3.33,1.05-5.5Z"/>
  <path class="cls-2" d="M120.17,57.76l6.39,10.45h.21l6.39-10.45h4.67l-8.33,13.36,8.38,13.36h-4.7l-6.42-10.31h-.21l-6.42,10.31h-4.7l8.52-13.36-8.47-13.36h4.67Z"/>
  <path class="cls-2" d="M150.84,84.48v-26.73h4.03v23.25h12.11v3.47h-16.14Z"/>
  <path class="cls-2" d="M173.47,84.48h-4.28l9.62-26.73h4.66l9.62,26.73h-4.28l-7.56-21.87h-.21l-7.57,21.87ZM174.19,74.02h13.89v3.39h-13.89v-3.39Z"/>
  <path class="cls-2" d="M201.8,84.48l-7.41-26.73h4.24l5.21,20.7h.25l5.42-20.7h4.2l5.42,20.71h.25l5.19-20.71h4.25l-7.42,26.73h-4.06l-5.62-20.02h-.21l-5.62,20.02h-4.07Z"/>
  <circle class="cls-1" cx="56.6" cy="26.08" r="7.72"/>
  <circle class="cls-2" cx="12.5" cy="26.08" r="7.81"/>
  <path class="cls-2" d="M64.02.18L21.19,24.91c-.9.52-.9,1.81,0,2.33l42.83,24.73c.9.52,2.02-.13,2.02-1.17V1.35c0-1.04-1.12-1.68-2.02-1.17ZM56.51,33.89c-4.31,0-7.81-3.5-7.81-7.81s3.5-7.81,7.81-7.81,7.81,3.5,7.81,7.81-3.5,7.81-7.81,7.81Z"/>
  <path class="cls-1" d="M44.85,24.91L2.02.18C1.12-.34,0,.31,0,1.35v49.46c0,1.04,1.12,1.68,2.02,1.17l42.83-24.73c.9-.52.9-1.81,0-2.33ZM12.5,33.89c-4.31,0-7.81-3.5-7.81-7.81s3.5-7.81,7.81-7.81,7.81,3.5,7.81,7.81-3.5,7.81-7.81,7.81Z"/>
</svg>