<?xml version="1.0" encoding="UTF-8"?>
<svg id="Layer_1" data-name="Layer 1" xmlns="http://www.w3.org/2000/svg" xmlns:xlink="http://www.w3.org/1999/xlink" viewBox="0 0 277.92 144.48">
  <defs>
    <style>
      .cls-1 {
        filter: url(#drop-shadow-1);
        font-family: Inter-Medium, Inter;
        font-size: 36.75px;
        font-variation-settings: 'wght' 500, 'slnt' 0;
        font-weight: 500;
        letter-spacing: -.01em;
      }

      .cls-1, .cls-2, .cls-3 {
        fill: #102a43;
      }

      .cls-4 {
        filter: url(#drop-shadow-3);
      }

      .cls-4, .cls-5 {
        fill: #8a94a6;
      }

      .cls-5 {
        filter: url(#drop-shadow-4);
      }

      .cls-2 {
        filter: url(#drop-shadow-2);
      }

      .cls-3 {
        filter: url(#drop-shadow-5);
      }
    </style>
    <filter id="drop-shadow-1" filterUnits="userSpaceOnUse">
      <feOffset dx="7" dy="6"/>
      <feGaussianBlur result="blur" stdDeviation="7"/>
      <feFlood flood-color="#000" flood-opacity=".75"/>
      <feComposite in2="blur" operator="in"/>
      <feComposite in="SourceGraphic"/>
    </filter>
    <filter id="drop-shadow-2" x="48.96" y="18.48" width="69.6" height="69.6" filterUnits="userSpaceOnUse">
      <feOffset dx="7" dy="6"/>
      <feGaussianBlur result="blur-2" stdDeviation="9"/>
      <feFlood flood-color="#000" flood-opacity=".75"/>
      <feComposite in2="blur-2" operator="in"/>
      <feComposite in="SourceGraphic"/>
    </filter>
    <filter id="drop-shadow-3" x="4.8" y="18.24" width="69.84" height="70.08" filterUnits="userSpaceOnUse">
      <feOffset dx="7" dy="6"/>
      <feGaussianBlur result="blur-3" stdDeviation="9"/>
      <feFlood flood-color="#000" flood-opacity=".75"/>
      <feComposite in2="blur-3" operator="in"/>
      <feComposite in="SourceGraphic"/>
    </filter>
    <filter id="drop-shadow-4" x="20.64" y="0" width="99.6" height="106.56" filterUnits="userSpaceOnUse">
      <feOffset dx="7" dy="6"/>
      <feGaussianBlur result="blur-4" stdDeviation="9"/>
      <feFlood flood-color="#000" flood-opacity=".75"/>
      <feComposite in2="blur-4" operator="in"/>
      <feComposite in="SourceGraphic"/>
    </filter>
    <filter id="drop-shadow-5" x="0" y="0" width="99.84" height="106.56" filterUnits="userSpaceOnUse">
      <feOffset dx="7" dy="6"/>
      <feGaussianBlur result="blur-5" stdDeviation="9"/>
      <feFlood flood-color="#000" flood-opacity=".75"/>
      <feComposite in2="blur-5" operator="in"/>
      <feComposite in="SourceGraphic"/>
    </filter>
  </defs>
  <text class="cls-1" transform="translate(85.58 105.69)"><tspan x="0" y="0">FOX LAW</tspan></text>
  <circle class="cls-2" cx="76.77" cy="47.28" r="7.72"/>
  <circle class="cls-4" cx="32.67" cy="47.28" r="7.81"/>
  <path class="cls-5" d="M84.2,21.39l-42.83,24.73c-.9.52-.9,1.81,0,2.33l42.83,24.73c.9.52,2.02-.13,2.02-1.17V22.55c0-1.04-1.12-1.68-2.02-1.17ZM76.68,55.1c-4.31,0-7.81-3.5-7.81-7.81s3.5-7.81,7.81-7.81,7.81,3.5,7.81,7.81-3.5,7.81-7.81,7.81Z"/>
  <path class="cls-3" d="M65.03,46.12L22.2,21.39c-.9-.52-2.02.13-2.02,1.17v49.46c0,1.04,1.12,1.68,2.02,1.17l42.83-24.73c.9-.52.9-1.81,0-2.33ZM32.67,55.1c-4.31,0-7.81-3.5-7.81-7.81s3.5-7.81,7.81-7.81,7.81,3.5,7.81,7.81-3.5,7.81-7.81,7.81Z"/>
</svg>