<?xml version="1.0" encoding="UTF-8"?>
<svg id="svg1" xmlns="http://www.w3.org/2000/svg" viewBox="0 0 729.67 501.95">
  <defs>
    <style>
      .cls-1, .cls-2 {
        fill: #e2e8f0;
      }

      .cls-2 {
        fill-rule: evenodd;
      }

      .cls-3 {
        isolation: isolate;
      }
    </style>
  </defs>
  <g>
    <path class="cls-1" d="M263.66,425.58v-61.19h40.51v10.67h-27.58v14.58h24.89v10.67h-24.89v25.28h-12.94,0Z"/>
    <path class="cls-1" d="M369.09,394.99c0,6.67-1.26,12.35-3.78,17.03s-5.95,8.25-10.28,10.71-9.2,3.69-14.59,3.69-10.32-1.23-14.64-3.7-7.74-6.04-10.25-10.73c-2.51-4.68-3.76-10.35-3.76-17s1.26-12.35,3.76-17.03c2.51-4.68,5.93-8.25,10.25-10.71s9.2-3.69,14.64-3.69,10.26,1.23,14.59,3.69,7.76,6.03,10.28,10.71,3.78,10.36,3.78,17.03h0ZM355.98,394.99c0-4.32-.64-7.97-1.93-10.93-1.28-2.97-3.09-5.22-5.42-6.75s-5.06-2.3-8.19-2.3-5.86.77-8.19,2.3-4.14,3.78-5.42,6.75-1.93,6.61-1.93,10.93.64,7.97,1.93,10.93c1.28,2.97,3.09,5.22,5.42,6.75s5.06,2.3,8.19,2.3,5.86-.77,8.19-2.3,4.14-3.78,5.42-6.75,1.93-6.61,1.93-10.93Z"/>
    <path class="cls-1" d="M390.78,364.39l12.34,20.85h.48l12.4-20.85h14.61l-18.67,30.59,19.09,30.59h-14.88l-12.55-20.88h-.48l-12.55,20.88h-14.82l19.15-30.59-18.79-30.59h14.67Z"/>
    <path class="cls-1" d="M564.12,364.38v61.19h-12.94v-61.19h12.94Z"/>
    <path class="cls-1" d="M607.98,381.98c-.24-2.41-1.27-4.28-3.08-5.62-1.81-1.33-4.27-2-7.38-2-2.11,0-3.89.29-5.35.88-1.45.59-2.56,1.4-3.33,2.43-.77,1.04-1.15,2.21-1.15,3.53-.04,1.1.19,2.05.7,2.87s1.21,1.52,2.11,2.11c.9.59,1.93,1.1,3.11,1.52,1.18.43,2.43.79,3.77,1.09l5.5,1.32c2.67.6,5.12,1.39,7.35,2.39s4.16,2.22,5.8,3.67c1.63,1.45,2.9,3.17,3.81,5.14s1.37,4.23,1.39,6.78c-.02,3.74-.97,6.99-2.85,9.72-1.88,2.74-4.59,4.86-8.13,6.36s-7.79,2.26-12.77,2.26-9.24-.76-12.89-2.27c-3.66-1.51-6.5-3.76-8.54-6.74-2.04-2.98-3.11-6.67-3.21-11.07h12.52c.14,2.05.73,3.76,1.78,5.12,1.05,1.36,2.45,2.39,4.21,3.08s3.76,1.03,5.99,1.03,4.1-.32,5.72-.96c1.62-.64,2.88-1.52,3.78-2.66s1.34-2.44,1.34-3.91c0-1.38-.4-2.53-1.21-3.47s-1.98-1.73-3.52-2.39c-1.54-.66-3.43-1.25-5.66-1.79l-6.66-1.67c-5.16-1.26-9.23-3.22-12.22-5.89s-4.47-6.26-4.45-10.79c-.02-3.7.97-6.94,2.97-9.71s4.75-4.93,8.26-6.48c3.51-1.55,7.49-2.33,11.95-2.33s8.51.78,11.91,2.33c3.4,1.55,6.04,3.72,7.93,6.48,1.89,2.77,2.87,5.98,2.93,9.62h-12.4l-.03.02Z"/>
    <path class="cls-1" d="M629.88,425.57v-61.19h41.23v10.67h-28.29v14.58h26.17v10.67h-26.17v14.61h28.41v10.67h-41.35Z"/>
    <path class="cls-1" d="M681.41,425.57v-61.19h24.14c4.62,0,8.57.82,11.85,2.47,3.28,1.64,5.78,3.96,7.5,6.96s2.58,6.52,2.58,10.56-.88,7.55-2.63,10.47-4.29,5.15-7.6,6.71c-3.32,1.55-7.32,2.33-12.02,2.33h-16.16v-10.4h14.07c2.47,0,4.52-.34,6.15-1.02s2.85-1.69,3.66-3.05c.81-1.35,1.21-3.04,1.21-5.05s-.4-3.74-1.21-5.14c-.81-1.39-2.03-2.45-3.67-3.18-1.64-.73-3.71-1.09-6.2-1.09h-8.72v50.61h-12.95ZM714.46,397.72l15.21,27.84h-14.28l-14.88-27.84h13.95Z"/>
  </g>
  <g class="cls-3">
    <path class="cls-1" d="M618.38,446.55v54.57h-9.65v-54.57h9.65Z"/>
    <path class="cls-1" d="M640.08,501.95c-2.59,0-4.93-.47-7-1.4s-3.7-2.31-4.9-4.14c-1.2-1.83-1.8-4.09-1.8-6.77,0-2.31.43-4.22,1.28-5.73.85-1.51,2.02-2.72,3.49-3.62,1.47-.91,3.14-1.59,5-2.06s3.78-.81,5.77-1.03c2.4-.25,4.34-.47,5.84-.68,1.49-.2,2.58-.52,3.27-.96.68-.44,1.03-1.12,1.03-2.04v-.16c0-2.01-.6-3.56-1.79-4.66-1.19-1.1-2.9-1.65-5.14-1.65-2.36,0-4.23.51-5.61,1.54s-2.3,2.25-2.78,3.65l-9.01-1.28c.71-2.49,1.88-4.57,3.52-6.25s3.63-2.94,6-3.78,4.97-1.27,7.83-1.27c1.97,0,3.94.23,5.89.69,1.95.46,3.74,1.22,5.36,2.28,1.62,1.06,2.92,2.49,3.9,4.3.99,1.81,1.48,4.08,1.48,6.8v27.39h-9.27v-5.62h-.32c-.59,1.14-1.41,2.2-2.46,3.18-1.06.99-2.38,1.78-3.97,2.37s-3.45.89-5.58.89ZM642.58,494.86c1.94,0,3.61-.39,5.04-1.16,1.42-.77,2.52-1.8,3.29-3.08.77-1.28,1.16-2.67,1.16-4.18v-4.82c-.3.25-.81.48-1.53.69-.72.21-1.52.4-2.41.56-.89.16-1.77.3-2.64.43s-1.63.23-2.26.32c-1.44.2-2.73.52-3.86.96s-2.03,1.06-2.69,1.85c-.66.79-.99,1.81-.99,3.05,0,1.78.65,3.12,1.95,4.02,1.3.91,2.95,1.36,4.96,1.36Z"/>
    <path class="cls-1" d="M679.86,501.12l-11.57-40.93h9.83l7.2,28.78h.37l7.35-28.78h9.73l7.36,28.62h.4l7.09-28.62h9.86l-11.59,40.93h-10.05l-7.67-27.66h-.56l-7.67,27.66h-10.07Z"/>
  </g>
  <g>
    <path class="cls-2" d="M458.34,364.6l17.13,63.17h12.33l11.38-39.17h.47l11.4,39.17h12.34l4.94-17.25c-.02-.06-.05-.1-.07-.16-1.62-3.87-2.33-7.26-3.45-15.76-.45-3.38-.97-7.66-1.47-12.61l-6.56,27.59h-.53l-10.89-44.99h-11.84l-10.97,44.9h-.49l-9.9-44.9h-13.83,0Z"/>
    <path class="cls-2" d="M526.5,364.61l-3.07,15c.49.25,2.01,1.02,4.17,2.17l.39,1.37.39-.96c1.9,1.02,4.15,2.26,6.45,3.59l5.5-21.39-13.83.22h0Z"/>
  </g>
  <path class="cls-2" d="M370.81,294.1c-.29-.59-.58-1.17-.87-1.77-5.52-11.67-29.12-56.82-42.69-75.41-27.41-37.56-57.63-59.87-82.28-76.67-55.41-37.76-127.24-78.05-179-105.82l-5.04,12.47-5.03-17.84C26.54,13.44,5.28,2.67,0,0c6.7,66.72,13.67,123.99,19.64,169.23,14.58,110.68,23.81,154.71,44.88,205.13,24.02,57.5,46.29,82.24,57.03,93.14,9.98,10.13,27.57,23.87,42.39,34.45,12.41-108.65,98.37-194.94,206.87-207.85ZM260.67,211.46h25.35l-10.47,36.59c-3.67-2.13-7.28-4.13-10.45-5.85l-2.12,2.08-1.37-3.94-6.95-3.61,6.01-25.27ZM160.68,211.46h0s.01,0,.01,0h-.01l18.18,76.27h.9l20.06-76.27h21.7l20,76.44h.97l12.02-50.56c.92,9.08,1.87,16.91,2.69,23.11,2.05,15.58,3.35,21.78,6.32,28.88.04.1.09.19.13.29l-9.04,31.61h-22.62l-20.9-71.78h-.86l-20.86,71.78h-22.6l-31.43-109.77h25.34ZM127.96,230.6h0s-49.47.01-49.47.01v26.16h44.65v19.14h-44.65v45.34h-23.21v-109.79h72.68v19.14Z"/>
</svg>